<?xml version="1.0" standalone="no"?>
<!DOCTYPE svg PUBLIC "-//W3C//DTD SVG 1.1//EN" "http://www.w3.org/Graphics/SVG/1.1/DTD/svg11.dtd" >
<!--
2013-9-30: Created.
-->
<svg>
<metadata>
Created by iconfont
</metadata>
<defs>

<font id="iconfont" horiz-adv-x="1024" >
  <font-face
    font-family="iconfont"
    font-weight="500"
    font-stretch="normal"
    units-per-em="1024"
    ascent="896"
    descent="-128"
  />
    <missing-glyph />
    
    <glyph glyph-name="add" unicode="&#58977;" d="M512-40.915619c-234.672764 0-424.915619 190.243879-424.915619 424.915619S277.327236 808.916643 512 808.916643c234.676857 0 424.916643-190.243879 424.916643-424.915619S746.676857-40.915619 512-40.915619zM724.45781 426.49586 554.491767 426.49586 554.491767 596.453716l-84.983533 0 0-169.957857L299.54219 426.49586l0-84.99172 169.966043 0 0-169.966043 84.983533 0L554.491767 341.50414l169.966043 0L724.45781 426.49586z"  horiz-adv-x="1024" />

    
    <glyph glyph-name="documents-line" unicode="&#58979;" d="M872.03 705.348l-113.028 0 0 116.693-602.79 0 0-778.067 113.013 0 0-116.682 602.805 0c0 0-0.984 25.036-0.984 55.921l0.984 722.136zM193.906 82.882l0 700.25 527.438 0 0-700.252-527.438 0.001zM834.365-33.826l-527.456 0 0 77.8 452.093 0 0 622.467 75.363 0 0-700.267zM382.248 588.631l263.731 0 0 77.81-263.731 0 0-77.81zM306.909 199.593l339.069 0 0 38.907-339.069 0 0-38.907zM306.909 316.312l339.069 0 0 38.91-339.069 0 0-38.91zM306.909 433.011l339.069 0 0 38.903-339.069 0 0-38.903zM306.909 433.011z"  horiz-adv-x="1024" />

    
    <glyph glyph-name="clothing" unicode="&#58965;" d="M755.2 652.8l70.4-76.8-89.6-89.6-19.2-19.2L716.8 448l0-339.2L307.2 108.8 307.2 448 307.2 473.6 288 492.8 198.4 582.4l70.4 70.4 96 0c38.4-38.4 96-64 147.2-64s115.2 25.6 147.2 70.4L755.2 659.2M780.8 716.8 627.2 716.8C608 672 563.2 646.4 512 646.4S416 672 396.8 716.8L243.2 716.8 134.4 614.4C128 595.2 128 569.6 134.4 556.8L243.2 448l0-358.4c0-25.6 19.2-44.8 44.8-44.8l441.6 0c25.6 0 44.8 19.2 44.8 44.8L774.4 448l115.2 108.8c12.8 12.8 12.8 38.4 0 57.6L780.8 716.8 780.8 716.8z"  horiz-adv-x="1024" />

    
    <glyph glyph-name="unie653" unicode="&#59137;" d="M510.08 884c-281.728 0-510.08-228.352-510.08-510.048s228.352-510.08 510.08-510.08c281.696 0 510.048 228.32 510.048 510.08s-228.352 510.048-510.048 510.048zM662.976 600.032c-30.144 10.208-10.688 31.136-10.688 31.136 199.008 32.096 145.472-148.864 145.472-148.864-24.32-19.488-30.656 7.296-30.656 7.296 28.224 138.176-104.128 110.432-104.128 110.432zM795.68 236.992c-236.096-295.36-559.616-143.776-559.616-143.776-435.264 247.744 119.52 536.288 119.52 536.288 172.928 68 138.944-107.84 138.944-107.84 282.72 117.568 201.12-96.192 201.12-96.192 191.36-35.936 100.032-188.448 100.032-188.448zM829.856 491.776c42.848 209.824-158.112 167.712-158.112 167.712-45.824 15.52-16.256 47.296-16.256 47.296 302.176 48.768 220.896-226.08 220.896-226.08-36.928-29.568-46.528 11.072-46.528 11.072zM388.608 444.864c-143.904-19.008-250.88-107.904-238.912-198.56s138.336-148.768 282.24-129.792c143.936 19.008 250.88 107.904 238.912 198.592s-138.336 148.768-282.24 129.76zM409.472 152.192c-78.976-14.56-152.352 24.32-163.872 86.816s43.168 124.96 122.176 139.488c79.008 14.56 152.384-24.288 163.872-86.784s-43.168-124.992-122.208-139.52zM402.528 241.184c0-21.824-22.336-39.52-49.856-39.52s-49.856 17.696-49.856 39.52c0 21.824 22.336 39.52 49.856 39.52s49.856-17.696 49.856-39.52zM442.528 290.4c0-10.72-10.944-19.392-24.48-19.392s-24.48 8.672-24.48 19.392c0 10.72 10.944 19.392 24.48 19.392s24.48-8.672 24.48-19.392z"  horiz-adv-x="1024" />

    
    <glyph glyph-name="down" unicode="&#58901;" d="M863.321996 560.325004 194.108395 560.325004 528.677333 190.813229Z"  horiz-adv-x="1024" />

    
    <glyph glyph-name="icon" unicode="&#58900;" d="M741.903645 64.594413l108.491946-127.988999L959.33984 64.594413 741.903645 64.594413zM64.858682 831.994244l63.924915 0 0-63.98836L64.858682 768.005884 64.858682 831.994244 64.858682 831.994244zM192.644043 831.866331l767.565607 0.170892 0-63.990407-767.565607-0.170892L192.644043 831.866331 192.644043 831.866331zM64.858682 512.086214l63.924915 0 0-63.672158L64.858682 448.414055 64.858682 512.086214 64.858682 512.086214zM192.771957 512.211057l767.544117 0 0-63.672158L192.771957 448.538899 192.771957 512.211057 192.771957 512.211057zM64.858682 192.299957l63.924915 0-0.031722-63.36926L64.890404 128.930697 64.858682 192.299957 64.858682 192.299957zM192.771957 192.583412l767.437693-0.064468 0-63.36926-767.437693 0.064468L192.771957 192.583412 192.771957 192.583412zM192.771957 192.583412"  horiz-adv-x="1024" />

    
    <glyph glyph-name="radiowaves" unicode="&#59600;" d="M512 384m-128 0a64 64 0 1 0 256 0 64 64 0 1 0-256 0ZM288 384c0 73.8 37.106 138.416 92.628 174.068l-46.282 49.024c-12.52-9.216-24.36-19.666-35.368-31.326C250.628 524.542 224 456.438 224 384c0-72.438 26.628-140.542 74.98-191.766 11.008-11.658 22.848-22.11 35.368-31.324l46.282 49.022C325.106 245.584 288 310.2 288 384zM736 384c0-73.8-37.106-138.416-92.628-174.068l46.282-49.022c12.52 9.214 24.36 19.666 35.368 31.324C773.372 243.458 800 311.562 800 384c0 72.438-26.628 140.542-74.98 191.764-11.008 11.66-22.848 22.11-35.368 31.326l-46.282-49.024C698.894 522.416 736 457.8 736 384zM128 384c0 111.156 50.502 209.814 128.526 271.634L210.866 704c-11.998-10-23.478-20.792-34.394-32.356-35.244-37.338-62.924-80.834-82.268-129.282C74.162 492.166 64 438.888 64 384c0-54.886 10.162-108.168 30.204-158.362 19.344-48.452 47.024-91.946 82.268-129.284 10.916-11.562 22.396-22.354 34.394-32.356l45.658 48.366C178.502 174.186 128 272.844 128 384zM896 384c0-111.156-50.502-209.814-128.524-271.634l45.656-47.696c12 10.002 23.48 20.124 34.396 31.686 35.244 37.338 62.924 80.832 82.268 129.284C949.836 275.832 960 329.114 960 384c0 54.888-10.164 108.166-30.204 158.362-19.344 48.45-47.024 91.944-82.268 129.282C836.614 683.208 825.132 694 813.132 704l-45.658-48.366C845.498 593.814 896 495.156 896 384z"  horiz-adv-x="1024" />

    
    <glyph glyph-name="user01" unicode="&#59133;" d="M510.54537 833.634604c-247.485581 0-448.16002-200.639646-448.16002-448.16002 0-247.511163 200.674439-448.161043 448.16002-448.161043 247.450788 0 448.16002 200.649879 448.16002 448.161043C958.70539 632.995981 758.065743 833.634604 510.54537 833.634604L510.54537 833.634604 510.54537 833.634604zM510.54537 530.3246l0 0.382717L510.54537 530.3246l0-0.097214L510.54537 530.3246 510.54537 530.3246 510.54537 530.3246zM510.701936 246.23024c-0.210801-0.681522-0.24457-1.400906-0.331551-2.111081C510.388804 244.804774 510.491135 245.564068 510.701936 246.23024L510.701936 246.23024 510.701936 246.23024zM747.420289 111.10982l-4.251837 0.347924c-11.571546 2.503007-20.256346 11.870352-21.971407 23.337521-6.686283 46.076408-28.867468 90.140996-62.443168 124.084063-40.531112 40.972157-93.085048 63.668065-147.94961 63.853283-55.178717-0.107447-107.819634-22.75833-148.504242-63.853283-33.452903-33.849946-55.600319-77.904301-62.408375-124.112716-1.700735-11.579733-10.204409-20.701484-21.745257-23.229051l-4.443196-0.411369-3.222391 0.151449c-15.809057 2.130524-26.576285 16.259312-24.508183 31.405267 3.781116 28.401864 12.113899 55.903218 24.805966 81.753979 2.469238 5.030573 5.094018 10.002818 7.856945 14.853289 12.291954 20.701484 27.100218 39.644929 44.103474 56.402591 3.797489 3.679809 7.647167 7.260357 11.619642 10.752902 22.044062 19.354813 46.517453 34.697243 73.03848 45.910633-6.181793 4.682649-12.134365 9.880021-17.683754 15.396665-32.29759 32.350802-50.084699 75.318406-50.084699 121.031541 0 45.660946 17.821901 88.62241 50.084699 121.012098 31.737842 31.67542 73.808006 49.486064 118.464065 50.083675l4.379751 0c44.797275-0.665149 86.847997-18.443048 118.444623-50.083675 32.355919-32.292474 50.122561-75.286684 50.122561-121.012098 0-45.626153-17.841344-88.592734-50.069349-120.977305-5.692652-5.629207-11.556197-10.758018-17.718547-15.401782 26.576285-11.228739 51.102888-26.63359 73.088622-45.959751 3.938706-3.448542 7.705496-7.018857 11.522428-10.630105 17.119913-16.812921 31.9292-35.721573 44.083008-56.340169 2.870374-5.070482 5.564739-10.007935 7.979742-15.092743 12.570293-25.507954 20.936845-52.983725 24.826432-81.641415 1.047866-7.239891-0.808412-14.518668-5.324262-20.534685-4.516874-6.010901-11.06194-9.870812-18.502399-10.913561l-3.605108-0.192382L747.420289 111.10982 747.420289 111.10982zM508.673743 398.491039c0.823761 0.353041 1.995447 0.61296 3.342118 0.61296l0.402159 0C511.138888 399.005762 509.864872 398.849196 508.673743 398.491039L508.673743 398.491039 508.673743 398.491039zM510.54537 530.402371l0-0.008186L510.54537 530.402371 510.54537 530.402371 510.54537 530.402371 510.54537 530.402371zM634.647853 459.518974c0.122797 0.568958 0.314155 1.171686 0.524956 1.747807 2.100848 8.832156 3.325745 18.09103 3.325745 27.565822 0 9.498328-1.190105 18.741853-3.325745 27.789926-0.210801 0.647753-0.353041 1.234107-0.524956 1.857301-14.07353 54.933123-65.911152 98.657974-123.789351 98.657974l-0.645706 0c-57.912991 0-109.658516-43.724851-123.785258-98.657974-0.12382-0.636496-0.333598-1.235131-0.442068-1.857301-2.204202-9.022491-3.361561-18.301831-3.361561-27.789926 0-9.497305 1.191128-18.7132 3.361561-27.565822 0.122797-0.576121 0.318248-1.179872 0.442068-1.747807 14.018272-53.649897 65.313541-93.598748 122.858142-94.043886l0.8913 0 1.627057 0c57.491389 0.509606 108.730377 40.433898 122.82335 94.043886L634.647853 459.518974 634.647853 459.518974zM508.673743 398.491039c1.172709 0.38681 2.416026 0.61296 3.743254 0.61296L512.014838 399.103999C510.648724 399.005762 509.5456 398.815427 508.673743 398.491039L508.673743 398.491039 508.673743 398.491039zM508.673743 398.491039"  horiz-adv-x="1024" />

    
    <glyph glyph-name="searchamagnifyingglass" unicode="&#58917;" d="M430.852875 113.429594c-201.32198 0-364.504132 160.36646-364.504132 358.424797 0 198.12233 163.182152 358.744762 364.504132 358.744762 201.385973 0 364.568125-160.686425 364.568125-358.744762C795.421001 273.796054 632.238849 113.429594 430.852875 113.429594L430.852875 113.429594zM1014.21307-72.278095l-264.2271 260.195541c69.176434 75.255769 111.667786 174.508913 111.667786 283.936944 0 234.278376-192.874904 424.081616-430.800881 424.081616-237.925977 0-430.736888-189.867233-430.736888-424.081616 0-234.022404 192.874904-423.825644 430.736888-423.825644 102.772759 0 197.162435 35.580108 271.138344 94.709641l265.442967-261.091443c12.926586-12.862593 33.852297-12.862593 46.714891 0C1027.20365-105.810427 1027.20365-85.012702 1014.21307-72.278095L1014.21307-72.278095z"  horiz-adv-x="1024" />

    
    <glyph glyph-name="video" unicode="&#58993;" d="M946.659541 593.197556c-9.497305 5.482875-21.201881 5.482875-30.699186 0l-110.87932-64.017012 0 58.785871c0 33.795711-27.495214 61.291948-61.291948 61.291948L123.282814 649.258363c-33.795711 0-61.291948-27.495214-61.291948-61.291948l0-415.877779c0-33.795711 27.495214-61.291948 61.291948-61.291948l620.507296 0c33.795711 0 61.291948 27.495214 61.291948 61.291948l0 58.785871 110.87932-64.015989c9.497305-5.483898 21.201881-5.483898 30.699186 0 9.498328 5.482875 15.349593 15.618723 15.349593 26.585495L962.010157 566.611038C962.009134 577.57781 956.157869 587.713658 946.659541 593.197556zM900.610762 246.618073l-110.87932 64.015989c-9.498328 5.483898-21.200858 5.483898-30.699186 0-9.498328-5.482875-15.349593-15.618723-15.349593-26.585495l0-111.852484L123.389238 172.196083 123.389238 587.859991l620.293425 0 0-111.851461c0-10.967796 5.851265-21.10262 15.349593-26.586518 9.497305-5.482875 21.201881-5.483898 30.699186 0l110.87932 64.015989L900.610762 246.618073z"  horiz-adv-x="1024" />

    
    <glyph glyph-name="i-close" unicode="&#58883;" d="M924.792 0.254l-383.83 384.758 381.808 382.733c7.997 8.017 7.997 21.016 0 29.032-7.999 8.018-20.962 8.018-28.962 0l-381.809-382.732-381.808 382.732c-7.997 8.018-20.964 8.018-28.962 0-7.996-8.018-7.996-21.016 0-29.032l381.809-382.733-383.831-384.758c-7.996-8.017-7.996-21.016 0-29.032 3.998-4.007 9.24-6.012 14.482-6.012 5.241 0 10.483 2.005 14.482 6.012l383.83 384.758 383.83-384.758c3.999-4.007 9.239-6.012 14.482-6.012s10.481 2.005 14.482 6.012c7.996 8.017 7.996 21.016-0.001 29.032z"  horiz-adv-x="1024" />

    
    <glyph glyph-name="30" unicode="&#59103;" d="M312 206.4h556.8c28.8 0 52.8 19.2 57.6 48l64 369.6c3.2 17.6-1.6 33.6-12.8 46.4-11.2 12.8-27.2 20.8-44.8 20.8h-712c-4.8 0-8 3.2-9.6 8-6.4 40-12.8 78.4-19.2 116.8-4.8 28.8-28.8 48-57.6 48h-83.2c-11.2 0-19.2-8-19.2-19.2v0c0-11.2 8-19.2 19.2-19.2h83.2c9.6 0 17.6-6.4 19.2-16l123.2-694.4c4.8-27.2 28.8-48 57.6-48h601.6c11.2 0 19.2 8 19.2 19.2v0c0 11.2-8 19.2-19.2 19.2h-601.6c-9.6 0-17.6 6.4-19.2 16l-12.8 72c0 3.2 0 4.8 1.6 8s4.8 4.8 8 4.8zM300.8 244.8c-4.8 0-8 3.2-9.6 8l-68.8 388.8c0 3.2 0 4.8 1.6 8 1.6 1.6 4.8 3.2 8 3.2h700.8c6.4 0 11.2-1.6 14.4-6.4s4.8-9.6 4.8-16l-65.6-369.6c-1.6-9.6-9.6-16-19.2-16h-566.4zM361.6 38.4c-36.8 0-67.2-30.4-67.2-67.2s30.4-67.2 67.2-67.2c36.8 0 67.2 30.4 67.2 67.2 0 36.8-30.4 67.2-67.2 67.2zM361.6-57.6c-16 0-28.8 12.8-28.8 28.8s12.8 28.8 28.8 28.8c16 0 28.8-12.8 28.8-28.8-1.6-16-14.4-28.8-28.8-28.8zM843.2 38.4c-36.8 0-67.2-30.4-67.2-67.2s30.4-67.2 67.2-67.2 67.2 30.4 67.2 67.2c0 36.8-30.4 67.2-67.2 67.2zM843.2-57.6c-16 0-28.8 12.8-28.8 28.8s12.8 28.8 28.8 28.8 28.8-12.8 28.8-28.8c0-16-12.8-28.8-28.8-28.8z"  horiz-adv-x="1024" />

    
    <glyph glyph-name="stop" unicode="&#58960;" d="M209.417 834h150.008v-900h-150.008v900zM659.417 834h149.985v-900h-149.985v900z"  horiz-adv-x="1024" />

    
    <glyph glyph-name="musicbyinle" unicode="&#59034;" d="M934.313352 830.26895c4.15667-2.818185 6.229888-6.965645 6.229888-12.468986l0-664.643516c0-34.614355-13.851473-62.653969-41.544185-84.117816-27.693736-21.50785-63.690578-32.19526-107.999736-32.19526s-80.31521 10.68741-108.008946 32.19526c-27.693736 21.463848-41.535999 49.502437-41.535999 84.117816 0 34.579563 13.842263 62.618153 41.535999 84.126003 27.693736 21.454638 63.699788 32.18605 108.008946 32.18605l83.080184 0c22.154579 0 33.231869 11.07729 33.231869 33.231869L907.311371 597.643821l-531.715017-93.466742 0-450.717262c0-34.614355-13.851473-62.653969-41.544185-84.116793-27.693736-21.50785-63.690578-32.19526-107.999736-32.19526s-80.31521 10.68741-108.008946 32.19526c-27.693736 21.463848-41.535999 49.502437-41.535999 84.116793 0 34.579563 13.842263 62.618153 41.535999 84.126003 27.693736 21.454638 63.699788 32.18605 108.008946 32.18605l83.080184 0c22.154579 0 33.231869 11.07729 33.231869 33.231869L342.364485 718.104357c0 8.312316 4.847401 13.806447 14.542204 16.616446l564.946886 99.69663C927.391708 834.41641 931.539168 833.033923 934.313352 830.26895z"  horiz-adv-x="1024" />

    
    <glyph glyph-name="erjiheadphones381" unicode="&#58899;" d="M512 823.76704c-266.1376 0-487.15776-232.66304-492.6976-518.62528-0.1024-5.49888 2.00704-10.81344 5.85728-14.73536 2.75456-2.80576 6.22592-4.74112 10.00448-5.61152l0-273.46944c0-11.30496 9.17504-20.48 20.48-20.48L63.0784-9.15456l0-26.13248c0-11.30496 9.17504-20.48 20.48-20.48l139.79648 0c11.30496 0 20.48 9.17504 20.48 20.48L243.83488 341.9648c0 11.30496-9.17504 20.48-20.48 20.48l-91.81184 0C161.73056 564.3264 325.28384 716.58496 512 716.58496S862.26944 564.3264 892.43648 362.45504l0.01024-0.01024-91.81184 0c-11.30496 0-20.48-9.17504-20.48-20.48l0-377.25184c0-11.30496 9.17504-20.48 20.48-20.48L940.4416-55.76704c11.30496 0 20.48 9.17504 20.48 20.48l0 26.13248 7.44448 0c11.30496 0 20.48 9.17504 20.48 20.48L988.84608 284.79488c3.76832 0.8704 7.24992 2.79552 10.00448 5.61152 3.85024 3.93216 5.95968 9.23648 5.85728 14.73536C999.15776 591.11424 778.1376 823.76704 512 823.76704z"  horiz-adv-x="1024" />

    
    <glyph glyph-name="follower" unicode="&#58888;" d="M862.3616 290.56c-44.1344-0.4608-74.752-21.7088-94.2592-45.7216-19.1488 24.32-49.8176 45.7216-95.0784 45.7216-29.9008 0-54.7328-9.6768-73.7792-28.8256-34.8672-35.0208-35.584-87.7568-35.2256-89.3952-0.8704-5.3248-18.8928-131.9936 192.768-237.4656 3.584-1.792 7.5264-2.7136 11.4176-2.7136 4.1472 0 8.2432 1.024 11.9808 3.0208 128 67.9424 194.56 150.2208 192.512 239.8208C972.7488 221.44 943.7184 290.56 862.3616 290.56zM767.8464-13.312c-162.816 85.4528-153.7024 174.08-152.9344 181.6064-0.0512 9.4208 3.6352 40.192 20.6848 57.2928 9.216 9.2672 21.4528 13.7728 37.4784 13.7728 54.2208 0 68.1472-49.5104 69.4784-54.9888 2.6624-11.3664 12.6976-19.4048 24.3712-19.6608 11.2128 1.2288 22.0672 7.4752 25.2416 18.688 0.6656 2.2528 16.3328 55.3984 71.6288 55.9616 57.1392 0 57.7536-61.7472 57.8048-67.3792C923.0336 108.2368 868.5568 42.752 767.8464-13.312zM768.0512 574.5152c0 155.2384-126.3104 281.6-281.6 281.6s-281.6-126.3104-281.6-281.6c0-109.6192 63.0784-204.5952 154.7264-251.0848-168.8576-54.1184-308.3264-207.4624-308.3264-363.3152 0-14.1312 11.4688-25.6 25.6-25.6s25.6 11.4688 25.6 25.6c0 164.864 193.792 332.8 384 332.8C641.6896 292.9152 768.0512 419.2256 768.0512 574.5152zM486.4512 344.1152c-127.0272 0-230.4 103.3728-230.4 230.4 0 127.0272 103.3728 230.4 230.4 230.4s230.4-103.3728 230.4-230.4C716.8512 447.488 613.4784 344.1152 486.4512 344.1152z"  horiz-adv-x="1024" />

    
    <glyph glyph-name="left" unicode="&#58903;" d="M709.254038-61.195501c-15.286148 0-29.522384 5.878894-40.166815 16.564257L279.38971 345.759047c-1.425466 1.39272-2.537799 2.577708-3.449565 3.846608l-2.304486 2.905166c-11.362792 11.416004-16.945951 24.848944-16.945951 39.068807 0 14.475689 5.708002 28.010961 16.056698 38.110993l392.376529 388.216789c10.612709 10.467399 24.785499 16.236799 39.892569 16.236799 14.772448 0 28.726252-5.599532 39.287795-15.753799 10.497075-10.18599 16.538675-24.390503 16.538675-38.95215 0-14.382569-5.722328-28.009937-16.142655-38.366819L390.732587 390.901177 749.217215 31.473061c10.249435-10.30981 15.909341-23.781636 15.909341-37.994336 0-14.889105-6.05081-28.859281-16.999163-39.333844C737.70809-55.744349 723.878107-61.195501 709.254038-61.195501z"  horiz-adv-x="1024" />

    
    <glyph glyph-name="right" unicode="&#58936;" d="M312.56325 834.14421c15.286148 0 29.522384-5.878894 40.166815-16.564257l389.69649-390.391315c1.425466-1.39272 2.537799-2.577708 3.449565-3.846608l2.304486-2.905166c11.362792-11.416004 16.945951-24.848944 16.945951-39.068807 0-14.475689-5.708002-28.010961-16.056698-38.110993L356.692307-44.958702c-10.612709-10.467399-24.785499-16.236799-39.892569-16.236799-14.772448 0-28.726252 5.599532-39.287795 15.753799-10.497075 10.18599-16.538675 24.390503-16.538675 38.95215 0 14.382569 5.722328 28.009937 16.142655 38.366819l353.968777 350.170265L272.59905 741.475648c-10.249435 10.30981-15.909341 23.781636-15.909341 37.994336 0 14.889105 6.051833 28.859281 17.000186 39.333844C284.109198 828.693058 297.939181 834.14421 312.56325 834.14421z"  horiz-adv-x="1024" />

    
    <glyph glyph-name="douban0" unicode="&#59146;" d="M363.386264 498.76379 636.770701 498.76379 636.770701 383.772826 363.386264 383.772826 363.386264 498.76379ZM511.997953 818.192913c-237.093906 0-429.297416-194.412828-429.297416-434.205193 0-239.790318 192.204533-434.180634 429.297416-434.180634 237.095953 0 429.30151 194.390315 429.30151 434.180634C941.299463 623.780085 749.09493 818.192913 511.997953 818.192913L511.997953 818.192913zM271.600815 659.751345l477.682403 0 0-43.99705L271.600815 615.754295 271.600815 659.751345 271.600815 659.751345zM705.857173 546.759921l0-206.984145L295.288307 339.775776l0 206.984145L705.857173 546.759921 705.857173 546.759921zM749.283218 152.792151l-501.368872 0 0 44.99682 157.177785 0c-13.669324 47.996131-31.487132 65.243957-53.620221 98.780771l53.620221 19.014052c21.284769-31.843242 40.263006-69.798692 57.06774-117.794823l101.443413 0c20.092617 47.996131 37.7293 78.17343 52.906977 120.279411l58.291614-23.978111c-15.230889-35.516912-31.697933-48.305169-49.123814-96.3013l123.607202 0 0-44.99682L749.283218 152.792151 749.283218 152.792151z"  horiz-adv-x="1024" />

    
    <glyph glyph-name="heart" unicode="&#58896;" d="M708.01993 773.984039c-79.389118 0-150.063761-36.856419-196.134029-94.302783-46.070268 57.446363-116.744911 94.302783-196.134029 94.302783-138.853441 0-251.41917-112.564705-251.41917-251.418146 0-29.589922 5.390777-57.874105 14.771425-84.256986 70.483284-214.443024 403.287019-425.442622 432.781774-443.800735 29.494755 18.35709 362.297466 229.357711 432.781774 443.800735 9.379625 26.383904 14.771425 54.667064 14.771425 84.256986C959.438077 661.419334 846.873372 773.984039 708.01993 773.984039z"  horiz-adv-x="1024" />

    
    <glyph glyph-name="right1" unicode="&#58897;" d="M673.714 400.781q-85.098 85.098-341.118 341.118-5.091 5.819-5.091 10.91 0 5.091 5.091 10.183 5.091 5.091 10.183 5.091 5.091 0 10.91-5.091 119.282-119.282 357.119-357.119 5.091-5.091 5.091-10.91 0-5.091-5.091-10.183-0.727-0.727-1.455-1.455-88.734-88.734-355.665-354.937-5.819-5.091-10.91-5.091-5.091 0-10.183 5.091-5.091 5.091-5.091 10.183 0 5.091 5.091 10.91 113.464 113.464 341.118 341.118 5.091 5.091 0 10.183z"  horiz-adv-x="1024" />

    
    <glyph glyph-name="musicmenu" unicode="&#58958;" d="M72.819477 691.115056l505.92522 0c11.423651 0 20.657597 9.254604 20.657597 20.657597 0 11.402994-9.233946 20.657597-20.657597 20.657597L72.819477 732.430251c-11.423651 0-20.657597-9.254604-20.657597-20.657597C52.16188 700.36966 61.416483 691.115056 72.819477 691.115056zM72.819477 408.02334l505.92522 0c11.423651 0 20.657597 9.254604 20.657597 20.657597 0 11.402994-9.233946 20.657597-20.657597 20.657597L72.819477 449.338535c-11.423651 0-20.657597-9.254604-20.657597-20.657597C52.16188 417.257286 61.416483 408.02334 72.819477 408.02334zM298.524387 166.246819 72.819477 166.246819c-11.423651 0-20.657597-9.254604-20.657597-20.657597 0-11.402994 9.233946-20.657597 20.657597-20.657597l225.70491 0c11.423651 0 20.657597 9.254604 20.657597 20.657597C319.181985 156.992215 309.948039 166.246819 298.524387 166.246819zM962.129049 892.877811C956.055716 896.616836 948.515693 897.029988 942.132495 893.931348L718.142165 784.797261c-7.126871-3.470476-11.60957-10.679978-11.60957-18.57118l0-722.540788c-14.79084-42.492678-70.049913-87.009801-138.839713-111.551026-47.512474-16.959888-95.417443-22.723357-135.018057-16.257529-34.704764 5.680839-58.750207 20.595625-66.001024 40.922701-7.250817 20.327076 1.941814 47.099322 25.202269 73.458417 26.545013 30.056804 67.32311 55.940774 114.835584 72.880004 34.539503 12.332586 69.678076 18.798414 101.883271 18.798414 1.280771 0 2.561542-0.020658 3.800998-0.020658 11.279048 0 20.492337 9.048028 20.657597 20.347734 0.165261 11.402994-8.94474 20.781543-20.347734 20.967461-38.195898 0.619728-79.469778-6.775692-119.855381-21.174037-53.978302-19.252881-100.829733-49.247712-131.919418-84.448259-34.023063-38.526419-45.777236-79.242544-33.134786-114.670324 12.621792-35.42778 47.533132-59.514538 98.226876-67.818893 12.683765-2.06576 26.028573-3.09864 39.827848-3.09864 36.646578 0 76.536399 7.230159 115.765176 21.215353 83.250118 29.705625 148.156289 85.088644 165.364068 141.132706 0.59907 1.962472 0.908934 4.007574 0.908934 6.052676L747.889106 753.315082l182.695792 88.99293L930.584898 717.515466l-124.42071-71.268711c-9.894989-5.660182-13.344808-18.281974-7.663969-28.197621 5.680839-9.894989 18.281974-13.32415 28.197621-7.663969l134.811481 77.218099c6.44517 3.677052 10.390772 10.514717 10.390772 17.930795L971.900093 875.360168C971.83812 882.466382 968.161068 889.09747 962.129049 892.877811z"  horiz-adv-x="1024" />

    
    <glyph glyph-name="icmessage" unicode="&#58895;" d="M170.801067 640C158.961067 640 149.339733 630.378667 149.339733 618.56L149.339733 141.141333C149.339733 129.130667 158.769067 119.701333 170.801067 119.701333L850.8224 119.701333C862.6624 119.701333 872.283733 129.322667 872.283733 141.141333L872.283733 618.56C872.283733 630.592 862.875733 640 850.8224 640L170.801067 640ZM850.8224 77.034667 170.801067 77.034667C135.4304 77.034667 106.673067 105.792 106.673067 141.141333L106.673067 618.56C106.673067 653.909333 135.4304 682.666667 170.801067 682.666667L850.8224 682.666667C886.193067 682.666667 914.9504 653.909333 914.9504 618.56L914.9504 141.141333C914.9504 105.792 886.193067 77.034667 850.8224 77.034667L850.8224 77.034667ZM510.811733 285.4272C491.953067 285.4272 473.0944 291.336533 457.371733 303.197867L109.595733 564.9152 135.2384 598.984533 483.0144 337.288533C499.3984 324.9792 522.2464 324.9792 538.587733 337.288533L886.4064 599.0272 912.091733 564.957867 564.251733 303.197867C548.529067 291.336533 529.6704 285.4272 510.811733 285.4272"  horiz-adv-x="1024" />

    
    <glyph glyph-name="caigoutonggerenbangaobaozhenzhucedenglu20" unicode="&#58956;" d="M791.850932 896 251.229814 896C213.068323 896 181.267081 864.198758 181.267081 826.037267l0-884.074534c0-38.161491 31.801242-69.962733 69.962733-69.962733l540.621118 0c38.161491 0 69.962733 31.801242 69.962733 69.962733L861.813665 826.037267C861.813665 864.198758 830.012422 896 791.850932 896L791.850932 896zM257.590062 832.397516l521.540373 0c6.360248 0 19.080745-6.360248 19.080745-19.080745l0-667.826087L244.869565 145.490683 244.869565 819.677019C244.869565 826.037267 238.509317 832.397516 251.229814 832.397516L257.590062 832.397516zM779.130435-58.037267 257.590062-58.037267c-6.360248 0-19.080745 6.360248-19.080745 19.080745l0 127.204969 553.341615 0 0-127.204969c0-6.360248 6.360248-19.080745-6.360248-19.080745L779.130435-58.037267zM518.360248 11.925466M467.478261 11.925466"  horiz-adv-x="1024" />

    
    <glyph glyph-name="shenqingchengweiVIP" unicode="&#58881;" d="M1003.23456 571.968c-22.72 26.048-164.032 192.768-217.92 250.944-16.64 17.984-28.928 30.4-54.464 31.36-25.408 1.024-435.776 0-435.776 0-14.08 0-32.064-3.2-55.296-30.4-54.08-63.36-176-203.008-217.152-251.968-27.904-32.256-31.36-78.144 0-125.44 66.88-77.824 250.944-289.024 435.904-501.824 26.176-30.336 42.752-31.424 54.464-31.424 11.456 0 27.712 0.576 54.528 31.424 183.104 210.816 358.848 412.288 435.712 501.824 25.92 31.424 30.784 88.32 0 125.504z m-54.528-94.08c-61.376-71.552-245.888-276.608-392-445.504-21.376-24.704-34.304-25.024-43.456-25.024-9.28 0-22.464 0.896-43.456 25.024-147.584 170.432-339.328 383.168-392.64 445.504-14.848 15.232-14.528 40.832 0 62.72 32.768 39.168 147.328 169.088 190.592 219.52 32.128 37.504 60.288 31.424 71.552 31.424h347.776c41.728 0 51.648-9.216 70.912-31.424 41.728-47.936 172.608-198.656 190.656-219.52 16.192-22.912 11.328-44.608 0.064-62.72z m-435.648-346.368c-47.68 64-216.704 269.312-259.84 328l-3.328 4.16c-7.424 9.92-14.08 14.592-32.192 14.592h-2.304v44.224h95.744c2.816 0 3.456 0 5.376-3.136l196.032-252.096 196.352 251.456c2.496 3.84 3.392 3.84 6.016 3.84h95.296v-44.288h-2.176c-17.92 0-24.704-4.672-32.128-14.656-0.768-0.96-1.536-2.112-2.688-3.392-43.584-59.2-212.544-264.704-260.16-328.704z m0 0"  horiz-adv-x="1024" />

    
    <glyph glyph-name="award" unicode="&#58887;" d="M399.9-64.2c-7.4 0-14.1 1.1-20.9 4-20.4 8.5-33.4 28.3-33.4 50.4v202l-5.7 3.4c-105.8 61.7-171.5 174.3-171.5 294.8 0 189 153.4 342.4 342.4 342.4s342.4-153.4 342.4-342.4c0-120.5-65.6-233.2-171.5-294.8l-5.7-3.4v-202c0-22.1-13-41.9-33.4-50.4-6.8-2.8-13.6-4-20.9-4-14.7 0-28.3 5.7-38.5 15.8L510.8 24l-72.4-72.4c-10.7-10.2-24.3-15.8-38.5-15.8zM510.8 75c11.3 0 21.5-4.5 29.4-12.5l87.7-87.7V168.9l-14.7-4.5c-2.3-0.6-4.5-1.1-6.8-1.7-2.3-0.6-4-1.1-6.2-1.7-10.2-2.8-20.4-5.7-30.6-7.4-20.4-4-39.6-5.7-57.7-5.7h-3.4c-18.1 0-37.4 2.3-57.2 5.7-9.6 1.7-19.2 4.5-28.9 6.8l-1.7 0.6c-2.3 0.6-4.5 1.1-6.2 1.7-2.3 0.6-4.5 1.1-6.8 1.7l-14.7 4.5v-194.1l87.7 87.7c8.1 8 18.8 12.5 30.1 12.5z m0 709.1c-162.4 0-294.3-131.9-294.3-294.3 0-110.9 62.3-211.1 162.4-261.5l1.1-0.6c42.4-20.9 86-31.7 130.7-31.7s88.3 10.8 130.7 31.7l1.1 0.6c100.2 50.9 162.4 151.1 162.4 261.5 0.2 162.4-131.6 294.3-294.1 294.3z m0-442c-81.5 0-147.7 66.2-147.7 147.7s66.2 147.7 147.7 147.7 147.7-66.2 147.7-147.7-66.2-147.7-147.7-147.7z m0 247.9c-54.9 0-99.6-44.7-99.6-99.6s44.7-99.6 99.6-99.6 99.6 44.7 99.6 99.6-44.7 99.6-99.6 99.6z"  horiz-adv-x="1024" />

    
    <glyph glyph-name="volume-up" unicode="&#59125;" d="M128 512v-256h170.666667l213.333333-213.333333V725.333333L298.666667 512H128z m576-128c0 76.8-42.666667 140.8-106.666667 170.666667v-341.333334c64 29.866667 106.666667 93.866667 106.666667 170.666667zM597.333333 759.466667v-89.6c123.733333-38.4 213.333333-149.333333 213.333334-285.866667s-89.6-247.466667-213.333334-285.866667v-89.6c170.666667 38.4 298.666667 192 298.666667 375.466667s-128 337.066667-298.666667 375.466667z"  horiz-adv-x="1024" />

    
    <glyph glyph-name="volume-mute" unicode="&#59128;" d="M298.666667 512v-256h170.666666l213.333334-213.333333V725.333333l-213.333334-213.333333H298.666667z"  horiz-adv-x="1024" />

    
    <glyph glyph-name="user" unicode="&#58889;" d="M691.2 326.4c81.067 55.467 134.4 149.333 134.4 256C825.6 755.2 684.8 896 512 896S200.533 755.2 200.533 584.533c0-106.666 53.334-200.533 134.4-256C151.467 256 23.467 78.933 23.467-128h87.466c0 204.8 155.734 375.467 354.134 398.933 2.133 0 55.466 4.267 100.266 0h4.267c194.133-27.733 343.467-194.133 343.467-396.8h89.6C1000.533 78.933 872.533 256 691.2 326.4zM512 349.867c-130.133 0-234.667 104.533-234.667 234.666C277.333 714.667 381.867 819.2 512 819.2c130.133 0 234.667-104.533 234.667-234.667 0-130.133-104.534-234.666-234.667-234.666z"  horiz-adv-x="1024" />

    
    <glyph glyph-name="bofang" unicode="&#58908;" d="M780.8 420.266667L285.866667 727.466667c-27.733333 17.066667-64-4.266667-64-36.266667v-614.4c0-32 36.266667-53.333333 64-36.266667l492.8 307.2c29.866667 14.933333 29.866667 57.6 2.133333 72.533334z"  horiz-adv-x="1024" />

    
    <glyph glyph-name="icon_friend" unicode="&#59027;" d="M569.05853 390.314823c51.519374 36.084846 85.276199 95.874581 85.276199 163.40972 0 109.942995-89.444125 199.393259-199.387119 199.393259s-199.390189-89.449241-199.39019-199.393259c0-67.535139 33.757848-127.324874 85.278245-163.40972-131.147946-46.969755-225.235834-172.488493-225.235834-319.583643a27.871791 27.871791 0 0 1 17.684778-25.942858c3.110851-1.219781 78.973656-29.9051 322.291311-29.905101 242.528686 0 317.991378 28.707832 321.085855 29.927613a27.864628 27.864628 0 0 1 17.630543 25.92137c0 147.094126-94.086865 272.612864-225.233788 319.582619zM311.296909 553.724543c0 79.211063 64.440661 143.653771 143.650701 143.653771 79.207993 0 143.648654-64.442708 143.648654-143.653771 0-79.204923-64.440661-143.648654-143.648654-143.648654-79.211063 0-143.650701 64.443731-143.650701 143.648654z m144.279011-483.102857c-166.066223 0-249.800299 13.607926-283.464004 21.152763 10.810207 146.58759 133.534296 262.561951 282.835694 262.561951 149.309584 0 272.03879-115.974361 282.832623-262.573207-33.680077-7.581676-117.010971-21.141506-282.204313-21.141507zM734.892463 419.944654c20.641109 41.401945 31.448246 87.13043 31.448246 133.779889 0 58.422597-16.82827 115.076922-48.663326 163.826206a27.074635 27.074635 0 0 1-1.069355 1.523703c-0.903579 1.203408-8.960069 11.882632-13.779842 17.581423-9.934257 11.757788-27.523867 13.232372-39.275515 3.293-11.754718-9.939373-13.227256-27.520797-3.290952-39.278585 2.979868-3.52222 8.671497-10.962679 11.248181-14.370289 25.577538-39.491433 39.09132-85.313038 39.09132-132.576482 0-45.696762-12.728906-90.293469-36.8073-128.97342a27.875884 27.875884 0 0 1-3.299139-21.800515 27.857465 27.857465 0 0 1 13.578249-17.374716c102.537328-56.120159 173.327604-183.786817 168.325684-303.566853-0.636496-15.382339 11.305487-28.370141 26.682709-29.012778 0.397043-0.016373 0.795109-0.021489 1.187035-0.021489 14.854313 0 27.200502 11.725042 27.825742 26.705222 5.53097 132.528386-64.670905 268.376377-173.201737 340.265684z"  horiz-adv-x="1024" />

    
    <glyph glyph-name="cloud" unicode="&#59127;" d="M780.25 85.193H244.284c-98.269 0-178.215 79.946-178.215 178.213 0 82.49 55.65 152.967 134.266 172.763 6.279 137.061 119.752 246.638 258.337 246.638 95.601 0 181.439-51.188 226.905-134.426a156.23 156.23 0 0 0 11.604 0.432c71.92 0 134.8-51.051 150.374-120.34 66.756-27.184 110.914-92.265 110.914-165.067 0-98.267-79.949-178.213-178.217-178.213zM458.67 647.968c-123.386 0-223.77-100.383-223.77-223.77l0.113-16.944-14.642-2.46c-69.222-11.615-119.464-71.074-119.464-141.39 0-79.055 64.317-143.373 143.377-143.373h535.968c79.06 0 143.379 64.318 143.379 143.374 0 61.354-38.979 115.89-96.994 135.71l-9.987 3.413-1.6 10.432c-8.826 57.586-59.501 101.013-117.87 101.013-6.315 0-12.651-0.498-18.835-1.476l-12.736-2.018-5.65 11.593c-37.832 77.656-114.962 125.896-201.288 125.896z"  horiz-adv-x="1024" />

    
    <glyph glyph-name="musicnot" unicode="&#58880;" d="M818.52416 422.23616a12.00128 12.00128 0 0 0-15.31904-0.57344l-152.45312 115.99872-72.21248-432.0256a12.14464 12.14464 0 0 0-1.69984-4.48512c-14.47936-61.93152-93.53216-108.09344-186.4704-108.09344-104.18176 0-188.94848 57.69216-188.94848 128.63488 0 70.92224 84.74624 128.63488 188.94848 128.63488 42.78272 0 83.456-9.54368 116.51072-27.136l95.51872 541.77792a12.0832 12.0832 0 0 0 9.70752 9.78944 12.24704 12.24704 0 0 0 12.53376-5.7344l196.21888-331.63264a12.00128 12.00128 0 0 0-2.33472-15.1552z"  horiz-adv-x="1024" />

    
    <glyph glyph-name="MINUS" unicode="&#59152;" d="M819.2 404.6848H204.8a20.48 20.48 0 1 1 0-40.96h614.4a20.48 20.48 0 1 1 0 40.96z"  horiz-adv-x="1024" />

    
    <glyph glyph-name="suijibofang" unicode="&#58988;" d="M844.8 230.4c-6.4 6.4-16 12.8-25.6 9.6-19.2 0-35.2-16-35.2-35.2 0-9.6 6.4-19.2 12.8-25.6l41.6-41.6c-44.8 6.4-86.4 22.4-121.6 51.2-3.2 0-3.2 3.2-6.4 6.4L332.8 592C268.8 662.4 192 700.8 99.2 700.8c-19.2 0-35.2-16-35.2-35.2s16-32 35.2-32c73.6 0 134.4-32 182.4-86.4l384-400 6.4-6.4c48-38.4 108.8-64 172.8-70.4l-48-44.8c-9.6-6.4-16-19.2-16-28.8 0-19.2 19.2-35.2 38.4-32 9.6 0 19.2 6.4 25.6 12.8l99.2 92.8c16 16 16 41.6 0 57.6l-99.2 102.4z m-3.2 556.8c-12.8 16-32 19.2-48 6.4-9.6-6.4-12.8-16-12.8-25.6 0-12.8 3.2-22.4 16-28.8l41.6-41.6c-73.6-9.6-140.8-38.4-192-89.6l-115.2-118.4c-12.8-12.8-12.8-32 0-44.8 6.4-6.4 16-9.6 25.6-9.6s19.2 3.2 25.6 9.6l112 118.4c41.6 38.4 92.8 64 147.2 70.4l-44.8-44.8c-6.4-6.4-12.8-16-12.8-25.6 0-19.2 16-35.2 32-35.2 9.6 0 19.2 3.2 28.8 9.6L950.4 640c12.8 12.8 12.8 35.2 0 48l-108.8 99.2m-438.4-448c-9.6 0-19.2-3.2-25.6-9.6l-118.4-121.6c-48-44.8-96-67.2-160-67.2H96c-19.2 0-35.2-16-35.2-35.2s16-32 35.2-32h3.2c83.2 0 147.2 32 211.2 86.4l121.6 124.8c6.4 6.4 9.6 12.8 9.6 22.4 0 9.6-3.2 16-9.6 22.4-9.6 6.4-19.2 9.6-28.8 9.6z"  horiz-adv-x="1024" />

    
    <glyph glyph-name="xunhuanbofang" unicode="&#58989;" d="M694.4 41.6H195.2l48-44.8c9.6-6.4 16-16 16-28.8-3.2-19.2-19.2-32-38.4-32-9.6 0-22.4 6.4-28.8 12.8l-108.8 96c-12.8 12.8-16 35.2 0 48L192 192c6.4 6.4 19.2 9.6 28.8 9.6 19.2 0 35.2-16 35.2-35.2 0-9.6-6.4-19.2-12.8-25.6l-41.6-38.4h496c112 0 198.4 89.6 198.4 198.4v86.4c0 19.2 12.8 32 32 32s32-12.8 32-32v-86.4c0-140.8-118.4-259.2-265.6-259.2zM329.6 726.4h496l-48 44.8c-9.6 6.4-16 16-16 28.8 3.2 19.2 19.2 32 38.4 32 9.6 0 22.4-6.4 28.8-12.8l108.8-96c12.8-12.8 16-35.2 0-48L832 576c-6.4-6.4-19.2-9.6-28.8-9.6-19.2 0-35.2 16-35.2 35.2 0 9.6 6.4 19.2 12.8 25.6l41.6 38.4H326.4C217.6 662.4 128 572.8 128 460.8v-89.6c0-19.2-12.8-32-32-32s-32 12.8-32 32v86.4C64 608 182.4 726.4 329.6 726.4z"  horiz-adv-x="1024" />

    
    <glyph glyph-name="danquxunhuan" unicode="&#58990;" d="M928 419.2c-19.2 0-32-12.8-32-32v-86.4c0-108.8-86.4-198.4-198.4-198.4H201.6l41.6 38.4c6.4 6.4 12.8 16 12.8 25.6 0 19.2-16 35.2-35.2 35.2-9.6 0-22.4-3.2-28.8-9.6l-108.8-99.2c-16-12.8-12.8-35.2 0-48l108.8-96c6.4-6.4 19.2-12.8 28.8-12.8 19.2 0 35.2 12.8 38.4 32 0 12.8-6.4 22.4-16 28.8l-48 44.8h499.2c147.2 0 265.6 118.4 265.6 259.2v86.4c0 19.2-12.8 32-32 32zM96 339.2c19.2 0 32 12.8 32 32v89.6c0 112 89.6 201.6 198.4 204.8h496l-41.6-38.4c-6.4-6.4-12.8-16-12.8-25.6 0-19.2 16-35.2 35.2-35.2 9.6 0 22.4 3.2 28.8 9.6l105.6 99.2c16 12.8 12.8 35.2 0 48l-108.8 96c-6.4 6.4-19.2 12.8-28.8 12.8-19.2 0-35.2-12.8-38.4-32 0-12.8 6.4-22.4 16-28.8l48-44.8H329.6C182.4 726.4 64 608 64 457.6v-86.4c0-19.2 12.8-32 32-32zM544 224V544h-48L416 486.4l16-41.6 60.8 41.6V224z"  horiz-adv-x="1024" />

    
    <glyph glyph-name="ico-presetvideo-IJuv" unicode="&#58972;" d="M113.777778 668.444444h853.333333v-625.777777H113.777778V668.444444z m5.688889 56.888889C85.333333 725.333333 56.888889 696.888889 56.888889 662.755556v-608.711112c0-39.822222 28.444444-68.266667 62.577778-68.266666h836.266666c34.133333 0 62.577778 28.444444 62.577778 62.577778V662.755556c5.688889 34.133333-22.755556 62.577778-56.888889 62.577777H119.466667zM415.288889 184.888889c11.377778-5.688889 22.755556-5.688889 28.444444 0l284.444445 153.6c11.377778 5.688889 17.066667 17.066667 11.377778 28.444444 0 5.688889-5.688889 5.688889-5.688889 5.688889l-284.444445 147.911111c-17.066667 11.377778-39.822222 5.688889-45.511111-5.688889-5.688889-5.688889-5.688889-11.377778-5.688889-17.066666v-284.444445c0-11.377778 5.688889-22.755556 17.066667-28.444444z"  horiz-adv-x="1024" />

    
    <glyph glyph-name="lrc" unicode="&#58882;" d="M832.78658333 784.49777778L191.21341667 784.49777778C147.18293333 784.49777778 111.50222222 748.52579555 111.50222222 704.78658333l0-641.52462223C111.50222222 19.18293332999997 147.47420445-16.49777777999998 191.21341667-16.49777777999998l641.52462223 0c44.03048334 0 79.71119445 35.97198222 79.71119445 79.71119445L912.44923221 704.78658333C912.49777778 748.81706667 876.52579555 784.49777778 832.78658333 784.49777778zM839.2916389 56.32000000000005c0 0.33981667-654.9716389 0.3883611-654.9716389 0.3883611C184.65981667 56.70836110000005 184.7083611 711.6800000000001 184.7083611 711.6800000000001 184.7083611 711.34018333 839.68 711.2916389 839.68 711.2916389 839.34018333 711.2916389 839.2916389 56.32000000000005 839.2916389 56.32000000000005zM730.06497223 191.17852445000005l0.3883611-0.19418112L730.45333333 568.71443001c-1.31072 21.16570112-15.87427555 32.42818333-43.6421211 33.73890332L452.58069333 602.4533333300001c-14.56355555-1.31072-22.47642112-10.58284999-23.83568554-27.76784554 1.31072-17.18499555 9.27212999-26.45712555 23.83568554-27.76784555l216.31734557 0c3.98070557 0 5.97105778-1.99035221 5.97105777-5.97105778l0-321.5147611 0.53399666-0.29127111-74.85667555 0c-7.62159445 0-20.00061667-9.90321778-20.97152-25.77749334 0.97090333-17.18499555 11.50520889-26.45712555 20.97152-27.76784554l112.57628444 0C723.12300999 166.8088411 728.75425223 175.35279445000003 730.06497223 191.17852445000005zM472.43567445 467.4977189c-13.25283555 1.31072-20.48606777 10.58284999-21.84533333 27.76784555 1.31072 15.87427555 8.59249778 24.46677333 21.84533333 25.77749333l162.72346112 0c15.87427555-1.31072 24.46677333-9.90321778 25.77749334-25.77749333-1.31072-17.18499555-9.27212999-26.45712555-23.83568555-27.76784555L472.43567445 467.4977189zM310.29475555 548.8594488900001C302.52752555 550.17016889 285.24544 559.44229888 284.46871666 576.67584 285.24544 592.55011555 299.71190557 601.14261333 307.52768 602.4533333300001l63.98255445 0c9.36922112-1.31072 22.76769223-9.90321778 23.54441444-25.77749333C394.32647111 559.44229888 380.10273223 550.17016889 371.51023445 548.8594488900001L310.29475555 548.8594488900001zM387.0932389 220.59690666999995l0 233.01688888c1.31072 29.12711111-9.90321778 43.01103445-33.73890333 41.70031446L305.73150777 495.31411001C291.16795221 493.95484445 283.25508779 484.68271445 281.89582222 467.4977189c1.31072-18.54426112 9.27212999-28.4474789 23.83568555-29.7581989L325.58648889 437.73952c3.98070557 0 5.97105778-1.99035221 5.97105778-5.97105778l0-235.15287665c-0.09708999-0.58254222-0.14563555-1.21363001-0.14563556-1.84471666 0.14563555-3.44670777 0.97090333-6.5536 2.2330789-9.36922112 3.30107221-10.82557667 8.98085888-16.45681778 21.74824334-19.61225444 2.13598777-0.33981667 4.22343111 0.09708999 6.31087446 1.21363001l55.92405333 0c8.2526811 1.31072 23.64150557 10.58284999 24.41822777 27.76784555-0.72817778 15.87427555-15.38882333 24.46677333-24.41822777 25.77749333 0 0-13.83537778 0-28.30184335 0L387.0932389 220.54836109999997zM498.26171221 245.20931555000004c-27.76784555 0-41.70031445 13.25283555-41.70031445 39.70996111L456.5613989 400.01991111c0 26.45712555 11.89356999 39.7099611 35.72925667 39.7099611l117.09098667 0c27.76784555 0 41.0206811-11.26248334 39.7099611-33.73890332l0-121.07169223c0-26.45712555-11.89356999-39.7099611-35.72925667-39.70996111L498.26171221 245.20931555000004zM512.14563555 302.78390557c1.31072-2.66998557 3.30107221-4.61179221 5.97105778-5.97105778l69.46816 0c3.98070557 0 5.97105778 1.99035221 5.97105778 5.97105778L593.55591111 380.16492999c0 3.98070557-1.99035221 5.97105778-5.97105778 5.97105778L518.06814777 386.13598777c-3.98070557 0-5.97105778-1.99035221-5.97105778-5.97105778L512.09708999 302.78390557z"  horiz-adv-x="1024" />

    
    <glyph glyph-name="sq" unicode="&#58884;" d="M537.456788 211.31707900000004l198.722994 0 18.48398-18.023492c5.709025-5.565762 13.102413-8.336876 20.490683-8.336876 7.636934 0 15.266705 2.962471 21.018709 8.859785 11.317767 11.607362 11.083429 30.191626-0.522909 41.509393l-17.499559 17.063631L778.150686 522.459468c0 16.210193-13.143345 29.352515-29.353538 29.352515L537.456788 551.811983c-16.210193 0-29.352515-13.143345-29.352515-29.352515l0-281.788851C508.104273 224.460424 521.246595 211.31707900000004 537.456788 211.31707900000004zM566.810327 493.106953l152.634306 0L719.444633 309.632245l-2.808976 2.739391c-11.611455 11.317767-30.193673 11.081383-41.509393-0.522909-11.317767-11.607362-11.083429-30.191626 0.522909-41.509393l0.323365-0.315178L566.810327 270.02415599999995 566.810327 493.106953zM220.442668 270.02313200000003c-16.210193 0-29.352515-13.143345-29.352515-29.353538s13.143345-29.352515 29.352515-29.352515l211.342406 0c16.210193 0 29.352515 13.143345 29.352515 29.352515L461.137589 381.56657800000005c0 16.210193-13.143345 29.353538-29.352515 29.353538L249.796206 410.920116l0 82.187861 181.989891 0c16.210193 0 29.352515 13.143345 29.352515 29.352515 0 16.210193-13.143345 29.352515-29.352515 29.352515L220.442668 551.813007c-16.210193 0-29.352515-13.143345-29.352515-29.352515l0-140.893914c0-16.210193 13.143345-29.352515 29.352515-29.352515l181.989891 0 0-82.189907L220.442668 270.02415599999995zM933.722904 659.635711L88.354304 659.635711c-13.508665 0-24.461111-10.952446-24.461111-24.461111L63.893192 127.95446300000003c0-13.508665 10.952446-24.461111 24.461111-24.461111l845.367577 0c13.508665 0 24.461111 10.952446 24.461111 24.461111L958.182992 635.175623C958.182992 648.684288 947.230546 659.635711 933.722904 659.635711zM909.261793 152.415574L112.815415 152.415574 112.815415 610.714512l796.446377 0L909.261793 152.415574z"  horiz-adv-x="1024" />

    
    <glyph glyph-name="zuidahua" unicode="&#58987;" d="M204.8 640a51.2 51.2 0 0 1-51.2-51.2v-409.6a51.2 51.2 0 0 1 51.2-51.2h614.4a51.2 51.2 0 0 1 51.2 51.2V588.8a51.2 51.2 0 0 1-51.2 51.2H204.8z m0 51.2h614.4a102.4 102.4 0 0 0 102.4-102.4v-409.6a102.4 102.4 0 0 0-102.4-102.4H204.8a102.4 102.4 0 0 0-102.4 102.4V588.8a102.4 102.4 0 0 0 102.4 102.4z"  horiz-adv-x="1024" />

    
    <glyph glyph-name="music" unicode="&#59040;" d="M512 576c-106 0-192-86-192-192s86-192 192-192 192 86 192 192-86 192-192 192z m0-320c-70.8 0-128 57.2-128 128s57.2 128 128 128 128-57.2 128-128-57.2-128-128-128zM512 864C246.8 864 32 649.2 32 384s214.8-480 480-480 480 214.8 480 480S777.2 864 512 864z m0-896c-229.6 0-416 186.4-416 416S282.4 800 512 800s416-186.4 416-416-186.4-416-416-416zM937.2 854.8l-68-68c-12.4-12.4-12.4-32.8 0-45.2s32.8-12.4 45.2 0l68 68c12.4 12.4 12.4 32.8 0 45.2s-32.4 12.4-45.2 0zM768 640m-32 0a32 32 0 1 1 64 0 32 32 0 1 1-64 0Z"  horiz-adv-x="1024" />

    
    <glyph glyph-name="plist" unicode="&#58902;" d="M32-36v-60h60a300 300 0 0 0-60 60zM32 864v-540a300 300 0 0 0 60 60V804h840v-840H512a300 300 0 0 0-60-60h540V864zM272 384a240 240 0 1 1 240-240 240 240 0 0 1-240 240z m-90-360v240l180-120zM272 684h600v-60H272zM272 504h600v-60H272zM572 324h300v-60H572zM572 144h300v-60H572z"  horiz-adv-x="1024" />

    
    <glyph glyph-name="setting" unicode="&#59119;" d="M400.896 634.843429l20.041143 100.205714A18.285714 18.285714 0 0 0 438.857143 749.714286h146.285714a18.285714 18.285714 0 0 0 17.92-14.701715l20.041143-100.169142c17.846857-7.899429 34.779429-17.700571 50.541714-29.220572l96.804572 32.768a18.285714 18.285714 0 0 0 21.686857-8.192l73.142857-126.683428a18.285714 18.285714 0 0 0-3.766857-22.893715l-76.763429-67.474285a277.211429 277.211429 0 0 0 0-58.294858l76.8-67.474285a18.285714 18.285714 0 0 0 3.730286-22.893715l-73.142857-126.683428a18.285714 18.285714 0 0 0-21.686857-8.192l-96.804572 32.768c-15.762286-11.52-32.694857-21.321143-50.541714-29.220572l-20.041143-100.205714A18.285714 18.285714 0 0 0 585.142857 18.285714h-146.285714a18.285714 18.285714 0 0 0-17.92 14.701715l-20.041143 100.169142a273.993143 273.993143 0 0 0-50.541714 29.220572l-96.804572-32.768a18.285714 18.285714 0 0 0-21.686857 8.192l-73.142857 126.683428a18.285714 18.285714 0 0 0 3.766857 22.893715l76.763429 67.474285a277.211429 277.211429 0 0 0 0 58.294858l-76.8 67.474285a18.285714 18.285714 0 0 0-3.730286 22.893715l73.142857 126.683428a18.285714 18.285714 0 0 0 21.686857 8.192l96.804572-32.768c15.762286 11.52 32.694857 21.321143 50.541714 29.220572zM603.428571 384a91.428571 91.428571 0 1 1-182.857142 0 91.428571 91.428571 0 0 1 182.857142 0z m36.571429 0a128 128 0 1 0-256 0 128 128 0 0 0 256 0z m-205.165714 234.166857a18.285714 18.285714 0 0 0-11.117715-13.385143 237.421714 237.421714 0 0 1-58.697142-33.938285 18.285714 18.285714 0 0 0-17.188572-2.962286l-91.794286 31.085714-58.148571-100.754286 72.777143-63.963428a18.285714 18.285714 0 0 0 6.034286-16.310857 239.908571 239.908571 0 0 1 0-67.876572 18.285714 18.285714 0 0 0-6.034286-16.310857l-72.777143-63.963428L256 169.069714l91.794286 31.085715a18.285714 18.285714 0 0 0 17.188571-2.998858 237.421714 237.421714 0 0 1 58.697143-33.938285 18.285714 18.285714 0 0 0 11.154286-13.385143L453.851429 54.857143h116.297142l19.017143 94.976a18.285714 18.285714 0 0 0 11.117715 13.385143 237.421714 237.421714 0 0 1 58.697142 33.938285 18.285714 18.285714 0 0 0 17.188572 2.962286l91.794286-31.085714 58.148571 100.754286-72.777143 63.963428a18.285714 18.285714 0 0 0-6.034286 16.310857 239.908571 239.908571 0 0 1 0 67.876572 18.285714 18.285714 0 0 0 6.034286 16.310857l72.777143 63.963428L768 598.930286l-91.794286-31.085715a18.285714 18.285714 0 0 0-17.188571 2.998858 237.421714 237.421714 0 0 1-58.697143 33.938285 18.285714 18.285714 0 0 0-11.154286 13.385143L570.148571 713.142857h-116.297142l-19.017143-94.976z"  horiz-adv-x="1024" />

    
    <glyph glyph-name="down1" unicode="&#59148;" d="M512 300.141714l206.482286 206.518857a18.285714 18.285714 0 0 0 25.892571-25.892571l-219.428571-219.428571a18.285714 18.285714 0 0 0-25.892572 0l-219.428571 219.428571a18.285714 18.285714 0 0 0 25.892571 25.892571L512 300.141714z"  horiz-adv-x="1024" />

    
    <glyph glyph-name="power" unicode="&#58938;" d="M554.666667 469.333333a42.666667 42.666667 0 0 0-85.333334 0V768a42.666667 42.666667 0 0 0 85.333334 0v-298.666667z m101.973333 133.376a42.666667 42.666667 0 0 0 41.429333 74.581334 384 384 0 1 0-372.138666 0 42.666667 42.666667 0 0 0 41.386666-74.581334 298.666667 298.666667 0 1 1 289.365334 0z"  horiz-adv-x="1024" />

    
    <glyph glyph-name="download" unicode="&#58991;" d="M760.4736 402.0736a25.6 25.6 0 0 1-36.1984 0L512 189.7984V768a25.6 25.6 0 0 1-51.2 0v-578.2016L248.5248 402.0736a25.6 25.6 0 0 1-36.1984-36.1984l256-256a25.4976 25.4976 0 0 1 36.2496 0.0512l256 256a25.6 25.6 0 0 1 0 36.1984zM896-76.8h-819.2C34.4576-76.8 0-42.3424 0 0v102.4a25.6 25.6 0 0 0 51.2 0v-102.4a25.6 25.6 0 0 1 25.6-25.6h819.2a25.6 25.6 0 0 1 25.6 25.6v102.4a25.6 25.6 0 0 0 51.2 0v-102.4c0-42.3424-34.4576-76.8-76.8-76.8z"  horiz-adv-x="1024" />

    
    <glyph glyph-name="file-add" unicode="&#59234;" d="M914.1248 606.9248l-230.4 230.4A25.6 25.6 0 0 1 665.6 844.8H179.2C136.8576 844.8 102.4 810.3424 102.4 768v-819.2c0-42.3424 34.4576-76.8 76.8-76.8h665.6c42.3424 0 76.8 34.4576 76.8 76.8V588.8a25.8048 25.8048 0 0 1-7.4752 18.1248zM859.8016 588.8H691.2a25.6 25.6 0 0 0-25.6 25.6V783.0016L859.8016 588.8zM844.8-76.8h-665.6a25.6 25.6 0 0 0-25.6 25.6v819.2a25.6 25.6 0 0 0 25.6 25.6H614.4v-179.2c0-42.3424 34.4576-76.8 76.8-76.8H870.4v-588.8a25.6 25.6 0 0 0-25.6-25.6zM588.8 230.4H460.8v128a25.6 25.6 0 0 1-51.2 0V230.4H281.6a25.6 25.6 0 0 1 0-51.2H409.6v-128a25.6 25.6 0 0 1 51.2 0V179.2h128a25.6 25.6 0 0 1 0 51.2z"  horiz-adv-x="1024" />

    
    <glyph glyph-name="heart1" unicode="&#59238;" d="M486.4-76.8a25.6 25.6 0 0 0-12.4416 3.2256c-4.8128 2.6624-119.0912 66.6112-235.1104 171.3664-68.6592 61.952-123.4432 125.3376-162.9696 188.416C25.4976 366.6432 0 446.9248 0 524.8A269.1072 269.1072 0 0 0 268.8 793.6c50.176 0 103.4752-18.7904 150.0672-52.9408 27.2384-19.968 50.432-44.032 67.5328-69.5808a282.7264 282.7264 0 0 0 67.5328 69.5808C600.5248 774.8096 653.824 793.6 704 793.6A269.1072 269.1072 0 0 0 972.8 524.8c0-77.8752-25.5488-158.1568-75.8784-238.592-39.4752-63.0784-94.3104-126.464-162.9184-188.416-116.0192-104.7552-230.2976-168.704-235.1104-171.3664a25.6 25.6 0 0 0-12.4416-3.2256zM268.8 742.4A217.856 217.856 0 0 1 51.2 524.8c0-155.648 120.32-297.0624 221.2352-388.352A1420.1856 1420.1856 0 0 1 486.4-21.6064a1420.1856 1420.1856 0 0 1 213.9648 158.0544C801.28 227.6864 921.6 369.152 921.6 524.8A217.856 217.856 0 0 1 704 742.4c-87.1936 0-171.8784-71.7312-193.3312-136.0896a25.6 25.6 0 0 0-48.5376 0C440.6784 670.6688 355.9936 742.4 268.8 742.4z"  horiz-adv-x="1024" />

    
    <glyph glyph-name="coins-" unicode="&#58919;" d="M128 281.770667c2.389333-2.496 6.613333-5.696 12.586667-9.216 17.365333-10.282667 44.821333-20.437333 80.064-29.248C296.490667 224.32 400.576 213.333333 512 213.333333c111.424 0 215.509333 11.008 291.349333 29.973334 35.242667 8.810667 62.72 18.986667 80.085334 29.226666 5.973333 3.541333 10.176 6.741333 12.565333 9.237334V397.44C811.861333 360.384 672.810667 341.333333 512 341.333333s-299.861333 19.050667-384 56.106667v-115.669333z m0-97.664v-115.669334c2.389333-2.496 6.613333-5.696 12.586667-9.216 17.365333-10.282667 44.821333-20.437333 80.064-29.248C296.490667 10.986667 400.576 0 512 0c111.424 0 215.509333 11.008 291.349333 29.973333 35.242667 8.810667 62.72 18.986667 80.085334 29.226667 5.973333 3.541333 10.176 6.741333 12.565333 9.237333V184.106667C811.861333 147.050667 672.810667 128 512 128s-299.861333 19.050667-384 56.106667z m0 310.997333c2.389333-2.496 6.613333-5.696 12.586667-9.216 17.365333-10.282667 44.821333-20.437333 80.064-29.248C296.490667 437.653333 400.576 426.666667 512 426.666667c111.424 0 215.509333 11.008 291.349333 29.973333 35.242667 8.810667 62.72 18.986667 80.085334 29.226667 5.973333 3.541333 10.176 6.741333 12.565333 9.237333V610.773333C811.861333 573.717333 672.810667 554.666667 512 554.666667s-299.861333 19.050667-384 56.106666v-115.669333zM133.226667 704c2.048-1.493333 4.48-3.114667 7.338666-4.778667 17.386667-10.282667 44.842667-20.437333 80.085334-29.248C296.490667 650.986667 400.576 640 512 640c111.424 0 215.509333 11.008 291.349333 29.973333 35.242667 8.810667 62.72 18.986667 80.085334 29.226667A90.026667 90.026667 0 0 1 890.773333 704a90.026667 90.026667 0 0 1-7.338666 4.778667c-17.386667 10.282667-44.842667 20.437333-80.085334 29.248C727.509333 757.013333 623.424 768 512 768c-111.424 0-215.509333-11.008-291.349333-29.973333-35.242667-8.810667-62.72-18.986667-80.085334-29.226667A90.026667 90.026667 0 0 1 133.226667 704zM42.666667 64V704c0 97.984 205.354667 149.333333 469.333333 149.333333s469.333333-51.349333 469.333333-149.333333v-640c0-97.984-205.354667-149.333333-469.333333-149.333333S42.666667-33.984 42.666667 64z"  horiz-adv-x="1024" />

    
    <glyph glyph-name="minimize" unicode="&#59150;" d="M0.104819 870.295181A25.688693 25.688693 0 0 0 25.809638 896h970.921323a25.688693 25.688693 0 0 0 25.704819-25.704819v-971.130961a25.688693 25.688693 0 0 0-25.704819-25.704818H528.609764a25.688693 25.688693 0 0 0-25.704819 25.704818 25.688693 25.688693 0 0 0 25.704819 25.704819h442.819527V844.8H51.52252v-440.110362A25.688693 25.688693 0 0 0 25.801575 378.984819a25.688693 25.688693 0 0 0-25.704819 25.704819V870.295181z m0-970.921323v355.900473a25.688693 25.688693 0 0 0 25.704819 25.696756H381.702047a25.688693 25.688693 0 0 0 25.704819-25.704819v-355.89241a25.688693 25.688693 0 0 0-25.704819-25.704819H25.801575a25.688693 25.688693 0 0 0-25.696756 25.704819z m51.2 330.397229v-304.902048h304.902047V229.771087H51.304819z m432.58759 382.226141a25.688693 25.688693 0 0 0 25.704819-25.704819V419.315906L799.445669 709.180472a25.479055 25.479055 0 0 0 36.154457 0 25.479055 25.479055 0 0 0 0-36.154456l-289.864567-289.856504h166.984567a25.688693 25.688693 0 0 0 25.704819-25.704819 25.688693 25.688693 0 0 0-25.704819-25.704819H483.892409a25.688693 25.688693 0 0 0-25.704818 25.704819V586.300472a25.688693 25.688693 0 0 0 25.704818 25.704819z"  horiz-adv-x="1024" />

    
    <glyph glyph-name="music-albums" unicode="&#58966;" d="M512-85.333333C252.8-85.333333 42.666667 124.8 42.666667 384S252.8 853.333333 512 853.333333s469.333333-210.133333 469.333333-469.333333-210.133333-469.333333-469.333333-469.333333z m0 85.333333c212.074667 0 384 171.925333 384 384S724.074667 768 512 768 128 596.074667 128 384s171.925333-384 384-384z m223.850667 313.322667a42.666667 42.666667 0 1 0 81.386666-25.664 320.64 320.64 0 0 0-208.896-208.896 42.666667 42.666667 0 0 0-25.664 81.386666 235.328 235.328 0 0 1 153.173334 153.173334z m-447.701334 141.354666a42.666667 42.666667 0 1 0-81.386666 25.664 320.64 320.64 0 0 0 208.896 208.896 42.666667 42.666667 0 1 0 25.664-81.386666 235.328 235.328 0 0 1-153.173334-153.173334zM512 256a128 128 0 1 0 0 256 128 128 0 0 0 0-256z m0 85.333333a42.666667 42.666667 0 1 1 0 85.333334 42.666667 42.666667 0 0 1 0-85.333334z"  horiz-adv-x="1024" />

    
    <glyph glyph-name="zuihouyiyemoyexiayishou" unicode="&#59245;" d="M698.7 604c17.6 0 32-14.4 32-32v-376c0-17.6-14.4-32-32-32s-32 14.4-32 32V572c0 17.6 14.4 32 32 32zM611.7 406.5L336.6 599.1c-8.4 5.9-19.4 6.6-28.5 1.9-9.1-4.8-14.8-14.1-14.8-24.4v-385.3c0-10.3 5.7-19.7 14.8-24.4 9.1-4.6 20.1-4 28.5 1.9l275.2 192.6c7.3 5.2 11.7 13.6 11.7 22.6 0 9-4.4 17.4-11.8 22.5z"  horiz-adv-x="1024" />

    
    <glyph glyph-name="diyiyeshouyeshangyishou" unicode="&#59246;" d="M357.3 572v-376c0-17.6-14.4-32-32-32s-32 14.4-32 32V572c0 17.6 14.4 32 32 32s32-14.4 32-32zM400.5 384c0-9 4.4-17.4 11.7-22.6l275.2-192.6c8.4-5.9 19.4-6.5 28.5-1.9 9.1 4.7 14.8 14.1 14.8 24.4V576.6c0 10.3-5.7 19.6-14.8 24.4-9.1 4.7-20.1 4-28.5-1.9L412.3 406.5a27.29 27.29 0 0 1-11.8-22.5z"  horiz-adv-x="1024" />

    


  </font>
</defs>
</svg>
